<svg width="66" height="66" viewBox="0 0 66 66" fill="none" xmlns="http://www.w3.org/2000/svg">
<path d="M33 60.5C26.6292 58.8958 21.3698 55.2406 17.2219 49.5344C13.074 43.8281 11 37.4917 11 30.525V13.75L33 5.5L55 13.75V30.525C55 37.4917 52.926 43.8281 48.7781 49.5344C44.6302 55.2406 39.3708 58.8958 33 60.5ZM33 54.725C37.7667 53.2125 41.7083 50.1875 44.825 45.65C47.9417 41.1125 49.5 36.0708 49.5 30.525V17.5312L33 11.3438L16.5 17.5312V30.525C16.5 36.0708 18.0583 41.1125 21.175 45.65C24.2917 50.1875 28.2333 53.2125 33 54.725ZM35.0281 45.8906C35.601 45.3177 35.8875 44.6417 35.8875 43.8625C35.8875 43.0833 35.601 42.4073 35.0281 41.8344C34.4552 41.2615 33.7792 40.975 33 40.975C32.2208 40.975 31.5448 41.2615 30.9719 41.8344C30.399 42.4073 30.1125 43.0833 30.1125 43.8625C30.1125 44.6417 30.399 45.3177 30.9719 45.8906C31.5448 46.4635 32.2208 46.75 33 46.75C33.7792 46.75 34.4552 46.4635 35.0281 45.8906ZM31.0063 37.95H35.1313V36.4375C35.1313 35.9333 35.2458 35.4521 35.475 34.9938C35.75 34.3521 36.1167 33.8135 36.575 33.3781C37.0333 32.9427 37.5146 32.4958 38.0188 32.0375C38.7979 31.2583 39.474 30.3875 40.0469 29.425C40.6198 28.4625 40.9062 27.4083 40.9062 26.2625C40.9062 24.2 40.1156 22.5156 38.5344 21.2094C36.9531 19.9031 35.1083 19.25 33 19.25C31.1667 19.25 29.5281 19.7771 28.0844 20.8313C26.6406 21.8854 25.6667 23.2833 25.1625 25.025L28.875 26.5375C29.15 25.6208 29.6656 24.8417 30.4219 24.2C31.1781 23.5583 32.0375 23.2375 33 23.2375C34.0083 23.2375 34.8906 23.5354 35.6469 24.1313C36.4031 24.7271 36.7812 25.4833 36.7812 26.4C36.7812 27.1792 36.5406 27.901 36.0594 28.5656C35.5781 29.2302 35.0396 29.8375 34.4438 30.3875C33.8938 30.8917 33.3438 31.4073 32.7938 31.9344C32.2437 32.4615 31.8083 33.0688 31.4875 33.7563C31.1667 34.3979 31.0063 35.074 31.0063 35.7844V37.95Z" fill="white"/>
</svg>
